<svg xmlns="http://www.w3.org/2000/svg" viewBox="0 0 512 512" id="newspaper"><path fill="#eaeae0" d="M467 125V85h-40V45h-40V5H35v402c0 55.2 26.9 100 60 100h352c33.1 0 60-44.8 60-100V125h-40zm-321 40h100v120H146V165zm201 280H45v-40h302v40z"></path><path fill="#d7d4c1" d="M427 45v40h40v40h40v282c0 55.2-26.9 100-60 100s-60-44.8-60-100V45h40z"></path><path fill="#eaeae0" d="M467 85v322c0 33.1-9 60-20 60s-20-26.9-20-60V85h40z"></path><path fill="#db3529" fill-rule="evenodd" d="M245 165h-69v120h69V165z" clip-rule="evenodd"></path><path fill="#3279af" fill-rule="evenodd" d="M347 405H75v40h272v-40z" clip-rule="evenodd"></path><g fill="#272525"><path d="M447 472c-16.4 0-25-32.7-25-65V85h10v322c0 35.6 9.9 55 15 55s15-19.4 15-55V145h10v262c0 32.3-8.6 65-25 65z"></path><path d="M447 512c-17.9 0-34.4-11.3-46.7-31.7-11.8-19.7-18.3-45.7-18.3-73.3V10H10v335H0V5c0-2.8 2.2-5 5-5h382c2.8 0 5 2.2 5 5v402c0 25.8 6 50 16.9 68.1 10.4 17.3 23.9 26.9 38.1 26.9v10z"></path><path d="M447 512H65c-17.9 0-34.4-11.3-46.7-31.7C6.5 460.6 0 434.6 0 407v-42h10v42c0 25.8 6 50 16.9 68.1C37.3 492.5 50.8 502 65 502h382c14.2 0 27.7-9.5 38.1-26.9C496 457 502 432.8 502 407V130h-35c-2.8 0-5-2.2-5-5V90h-35c-2.8 0-5-2.2-5-5V50h-15V40h20c2.8 0 5 2.2 5 5v35h35c2.8 0 5 2.2 5 5v35h35c2.8 0 5 2.2 5 5v282c0 27.6-6.5 53.6-18.3 73.3-12.3 20.4-28.8 31.7-46.7 31.7z"></path><path d="M246 290H146c-2.8 0-5-2.2-5-5V165c0-2.8 2.2-5 5-5h100c2.8 0 5 2.2 5 5v120c0 2.8-2.2 5-5 5zm-95-10h90V170h-90v110zM277 160h70v10h-70zM277 200h70v10h-70zM277 240h70v10h-70zM277 280h70v10h-70zM45 160h70v10H45zM45 200h70v10H45zM45 240h70v10H45zM45 280h70v10H45zM45 320h302v10H45zM45 360h302v10H45zM347 450H45c-2.8 0-5-2.2-5-5v-40c0-2.8 2.2-5 5-5h302c2.8 0 5 2.2 5 5v40c0 2.8-2.2 5-5 5zM50 440h292v-30H50v30zm51-310c-1.7 0-3.3-.9-4.2-2.4L56 62.4V130H46V45c0-2.2 1.5-4.2 3.6-4.8 2.1-.6 4.4.3 5.6 2.2L96 107.6V40h10v85c0 2.2-1.5 4.2-3.6 4.8-.5.1-.9.2-1.4.2zM126 80h60v10h-60z"></path><path d="M186 130h-55c-2.8 0-5-2.2-5-5V45c0-2.8 2.2-5 5-5h55v10h-50v70h50v10zm75 0c-1.7 0-3.3-.9-4.2-2.4L236 94.4l-20.8 33.2c-1.2 1.9-3.5 2.8-5.6 2.2-2.1-.6-3.6-2.6-3.6-4.8V40h10v67.6l15.8-25.2c.9-1.5 2.5-2.4 4.2-2.4s3.3.9 4.2 2.4l15.8 25.2V40h10v85c0 2.2-1.5 4.2-3.6 4.8-.5.1-.9.2-1.4.2zm60 0h-35v-10h35c8.3 0 15-6.7 15-15s-6.7-15-15-15h-10c-13.8 0-25-11.2-25-25s11.2-25 25-25h35v10h-35c-8.3 0-15 6.7-15 15s6.7 15 15 15h10c13.8 0 25 11.2 25 25s-11.2 25-25 25z"></path></g></svg>